<svg xmlns="http://www.w3.org/2000/svg" xmlns:xlink="http://www.w3.org/1999/xlink" width="408" zoomAndPan="magnify" viewBox="0 0 306 86.249997" height="115" preserveAspectRatio="xMidYMid meet" version="1.2"><defs><clipPath id="279f2851f9"><path d="M 1.320312 0 L 86.203125 0 L 86.203125 84.886719 L 1.320312 84.886719 Z M 1.320312 0 "/></clipPath><clipPath id="0b4c5b90a3"><path d="M 43.761719 0 C 20.320312 0 1.320312 19.003906 1.320312 42.441406 C 1.320312 65.882812 20.320312 84.886719 43.761719 84.886719 C 67.203125 84.886719 86.203125 65.882812 86.203125 42.441406 C 86.203125 19.003906 67.203125 0 43.761719 0 Z M 43.761719 0 "/></clipPath><clipPath id="a80aed44bf"><path d="M 289.089844 61.425781 L 298.742188 61.425781 L 298.742188 70.445312 L 289.089844 70.445312 Z M 289.089844 61.425781 "/></clipPath><clipPath id="d50713634a"><path d="M 293.910156 61.425781 C 291.246094 61.425781 289.089844 63.445312 289.089844 65.9375 C 289.089844 68.425781 291.246094 70.445312 293.910156 70.445312 C 296.574219 70.445312 298.734375 68.425781 298.734375 65.9375 C 298.734375 63.445312 296.574219 61.425781 293.910156 61.425781 Z M 293.910156 61.425781 "/></clipPath><clipPath id="aae7552cf0"><path d="M 43 10 L 54 10 L 54 24 L 43 24 Z M 43 10 "/></clipPath><clipPath id="552547ffc4"><path d="M 54.625 21.988281 L 49.523438 24.96875 L 42.039062 12.152344 L 47.140625 9.171875 Z M 54.625 21.988281 "/></clipPath><clipPath id="aa95ddd275"><path d="M 52.074219 23.476562 C 50.667969 24.300781 48.855469 23.824219 48.035156 22.417969 L 43.535156 14.707031 C 42.710938 13.300781 43.1875 11.492188 44.59375 10.667969 C 46.003906 9.84375 47.8125 10.320312 48.636719 11.730469 L 53.136719 19.4375 C 53.957031 20.84375 53.484375 22.65625 52.074219 23.476562 Z M 52.074219 23.476562 "/></clipPath><clipPath id="a88693bbe8"><path d="M 33 9 L 50 9 L 50 33 L 33 33 Z M 33 9 "/></clipPath><clipPath id="f6a0cf01c4"><path d="M 50.382812 30.898438 L 45.28125 33.878906 L 32.097656 11.300781 L 37.199219 8.320312 Z M 50.382812 30.898438 "/></clipPath><clipPath id="3534379342"><path d="M 47.832031 32.390625 C 46.425781 33.210938 44.617188 32.738281 43.792969 31.328125 L 33.59375 13.863281 C 32.769531 12.453125 33.246094 10.644531 34.652344 9.820312 C 36.0625 9 37.871094 9.472656 38.695312 10.882812 L 48.894531 28.347656 C 49.71875 29.757812 49.242188 31.566406 47.832031 32.390625 Z M 47.832031 32.390625 "/></clipPath><clipPath id="33f4b5f6f0"><path d="M 25 13 L 62 13 L 62 72 L 25 72 Z M 25 13 "/></clipPath><clipPath id="9e83a75e32"><path d="M 62.851562 69.351562 L 57.75 72.332031 L 24.652344 15.65625 L 29.753906 12.675781 Z M 62.851562 69.351562 "/></clipPath><clipPath id="838b4c93ae"><path d="M 60.300781 70.839844 C 58.894531 71.664062 57.082031 71.1875 56.261719 69.78125 L 26.144531 18.210938 C 25.320312 16.800781 25.796875 14.992188 27.203125 14.171875 C 28.613281 13.347656 30.421875 13.824219 31.246094 15.230469 L 61.363281 66.800781 C 62.183594 68.210938 61.710938 70.019531 60.300781 70.839844 Z M 60.300781 70.839844 "/></clipPath><clipPath id="5fdb2cbbac"><path d="M 34 60 L 45 60 L 45 75 L 34 75 Z M 34 60 "/></clipPath><clipPath id="9fd2189295"><path d="M 32.921875 62.875 L 38.023438 59.894531 L 45.53125 72.746094 L 40.429688 75.726562 Z M 32.921875 62.875 "/></clipPath><clipPath id="47f52c0d04"><path d="M 35.472656 61.382812 C 36.882812 60.5625 38.691406 61.035156 39.515625 62.445312 L 44.035156 70.183594 C 44.855469 71.589844 44.382812 73.398438 42.972656 74.222656 C 41.5625 75.046875 39.753906 74.570312 38.933594 73.160156 L 34.414062 65.425781 C 33.589844 64.015625 34.066406 62.207031 35.472656 61.382812 Z M 35.472656 61.382812 "/></clipPath><clipPath id="a98036435c"><path d="M 38 52 L 55 52 L 55 76 L 38 76 Z M 38 52 "/></clipPath><clipPath id="e0e8be9cae"><path d="M 37.171875 53.976562 L 42.273438 51 L 55.460938 73.578125 L 50.359375 76.554688 Z M 37.171875 53.976562 "/></clipPath><clipPath id="ae8ee0504d"><path d="M 39.722656 52.488281 C 41.132812 51.664062 42.941406 52.140625 43.765625 53.550781 L 53.964844 71.015625 C 54.789062 72.425781 54.3125 74.234375 52.90625 75.058594 C 51.496094 75.878906 49.6875 75.40625 48.863281 73.996094 L 38.664062 56.527344 C 37.839844 55.121094 38.316406 53.3125 39.722656 52.488281 Z M 39.722656 52.488281 "/></clipPath></defs><g id="7ff395aa40"><g clip-rule="nonzero" clip-path="url(#279f2851f9)"><g clip-rule="nonzero" clip-path="url(#0b4c5b90a3)"><path style=" stroke:none;fill-rule:nonzero;fill:#2563eb;fill-opacity:1;" d="M 1.320312 0 L 86.203125 0 L 86.203125 84.886719 L 1.320312 84.886719 Z M 1.320312 0 "/></g></g><g style="fill:#000000;fill-opacity:1;"><g transform="translate(101.841438, 58.359608)"><path style="stroke:none" d="M 2.546875 -12.03125 L 4.390625 -12.03125 C 4.828125 -9.039062 6.019531 -6.6875 7.96875 -4.96875 C 9.914062 -3.257812 12.320312 -2.40625 15.1875 -2.40625 C 16.34375 -2.40625 17.410156 -2.546875 18.390625 -2.828125 C 19.367188 -3.109375 20.203125 -3.507812 20.890625 -4.03125 C 21.578125 -4.550781 22.109375 -5.164062 22.484375 -5.875 C 22.867188 -6.582031 23.0625 -7.375 23.0625 -8.25 C 23.0625 -9.007812 22.941406 -9.660156 22.703125 -10.203125 C 22.472656 -10.753906 22.023438 -11.289062 21.359375 -11.8125 C 20.703125 -12.332031 19.796875 -12.859375 18.640625 -13.390625 C 17.492188 -13.921875 16.007812 -14.535156 14.1875 -15.234375 C 10.507812 -16.648438 7.789062 -18.289062 6.03125 -20.15625 C 4.269531 -22.03125 3.390625 -24.238281 3.390625 -26.78125 C 3.390625 -28.257812 3.671875 -29.609375 4.234375 -30.828125 C 4.804688 -32.054688 5.601562 -33.109375 6.625 -33.984375 C 7.644531 -34.867188 8.867188 -35.554688 10.296875 -36.046875 C 11.734375 -36.535156 13.316406 -36.78125 15.046875 -36.78125 C 16.648438 -36.78125 18.15625 -36.523438 19.5625 -36.015625 C 20.976562 -35.515625 22.378906 -34.765625 23.765625 -33.765625 L 24.609375 -36.125 L 25.75 -36.125 L 26.265625 -25.9375 L 24.421875 -25.9375 C 23.671875 -28.507812 22.492188 -30.476562 20.890625 -31.84375 C 19.285156 -33.21875 17.429688 -33.90625 15.328125 -33.90625 C 13.378906 -33.90625 11.796875 -33.425781 10.578125 -32.46875 C 9.367188 -31.507812 8.765625 -30.273438 8.765625 -28.765625 C 8.765625 -28.109375 8.875 -27.519531 9.09375 -27 C 9.320312 -26.476562 9.734375 -25.976562 10.328125 -25.5 C 10.921875 -25.03125 11.734375 -24.550781 12.765625 -24.0625 C 13.804688 -23.582031 15.144531 -23.046875 16.78125 -22.453125 C 18.988281 -21.597656 20.867188 -20.738281 22.421875 -19.875 C 23.972656 -19.007812 25.242188 -18.082031 26.234375 -17.09375 C 27.234375 -16.101562 27.96875 -15.054688 28.4375 -13.953125 C 28.90625 -12.859375 29.140625 -11.648438 29.140625 -10.328125 C 29.140625 -8.722656 28.789062 -7.257812 28.09375 -5.9375 C 27.40625 -4.625 26.441406 -3.492188 25.203125 -2.546875 C 23.960938 -1.597656 22.484375 -0.859375 20.765625 -0.328125 C 19.054688 0.203125 17.164062 0.46875 15.09375 0.46875 C 13.207031 0.46875 11.507812 0.210938 10 -0.296875 C 8.488281 -0.816406 6.929688 -1.660156 5.328125 -2.828125 L 4.390625 0 L 3.25 0 Z M 2.546875 -12.03125 "/></g></g><g style="fill:#000000;fill-opacity:1;"><g transform="translate(133.106803, 58.359608)"><path style="stroke:none" d="M 12.125 -7.6875 C 12.125 -6.394531 12.160156 -5.378906 12.234375 -4.640625 C 12.316406 -3.898438 12.488281 -3.332031 12.75 -2.9375 C 13.019531 -2.550781 13.429688 -2.296875 13.984375 -2.171875 C 14.535156 -2.046875 15.28125 -1.953125 16.21875 -1.890625 L 16.21875 0 L 1.375 0 L 1.375 -1.890625 C 2.28125 -1.953125 3.007812 -2.046875 3.5625 -2.171875 C 4.113281 -2.296875 4.535156 -2.546875 4.828125 -2.921875 C 5.128906 -3.296875 5.328125 -3.828125 5.421875 -4.515625 C 5.515625 -5.210938 5.5625 -6.160156 5.5625 -7.359375 L 5.5625 -13.25 C 5.5625 -15.101562 5.53125 -16.601562 5.46875 -17.75 C 5.40625 -18.894531 5.328125 -19.675781 5.234375 -20.09375 C 5.140625 -20.5 5.015625 -20.832031 4.859375 -21.09375 C 4.703125 -21.363281 4.460938 -21.566406 4.140625 -21.703125 C 3.828125 -21.847656 3.4375 -21.941406 2.96875 -21.984375 C 2.5 -22.035156 1.898438 -22.0625 1.171875 -22.0625 L 1.171875 -23.671875 L 10.28125 -25.46875 L 10.890625 -21.3125 L 11.078125 -21.3125 C 12.117188 -22.632812 13.34375 -23.65625 14.75 -24.375 C 16.164062 -25.101562 17.722656 -25.46875 19.421875 -25.46875 C 21.441406 -25.46875 23.070312 -25.191406 24.3125 -24.640625 C 25.550781 -24.085938 26.660156 -23.164062 27.640625 -21.875 C 28.171875 -21.15625 28.640625 -20.222656 29.046875 -19.078125 C 29.453125 -17.929688 29.65625 -16.347656 29.65625 -14.328125 L 29.65625 -7.6875 C 29.65625 -6.394531 29.691406 -5.378906 29.765625 -4.640625 C 29.847656 -3.898438 30.023438 -3.332031 30.296875 -2.9375 C 30.566406 -2.550781 30.96875 -2.296875 31.5 -2.171875 C 32.03125 -2.046875 32.753906 -1.953125 33.671875 -1.890625 L 33.671875 0 L 18.90625 0 L 18.90625 -1.890625 C 19.851562 -1.921875 20.597656 -2.003906 21.140625 -2.140625 C 21.691406 -2.285156 22.109375 -2.546875 22.390625 -2.921875 C 22.679688 -3.296875 22.875 -3.835938 22.96875 -4.546875 C 23.0625 -5.253906 23.109375 -6.191406 23.109375 -7.359375 L 23.109375 -13.765625 C 23.109375 -15.367188 23.015625 -16.71875 22.828125 -17.8125 C 22.640625 -18.914062 22.332031 -19.804688 21.90625 -20.484375 C 21.476562 -21.160156 20.914062 -21.648438 20.21875 -21.953125 C 19.53125 -22.253906 18.671875 -22.40625 17.640625 -22.40625 C 16.628906 -22.40625 15.757812 -22.117188 15.03125 -21.546875 C 14.3125 -20.984375 13.6875 -20.195312 13.15625 -19.1875 C 12.875 -18.625 12.628906 -17.894531 12.421875 -17 C 12.222656 -16.101562 12.125 -15.164062 12.125 -14.1875 Z M 12.125 -7.6875 "/></g></g><g style="fill:#000000;fill-opacity:1;"><g transform="translate(167.390241, 58.359608)"><path style="stroke:none" d="M 16.21875 -13.4375 C 13.582031 -12.238281 11.59375 -11.128906 10.25 -10.109375 C 8.914062 -9.085938 8.25 -8.03125 8.25 -6.9375 C 8.25 -6.019531 8.5 -5.296875 9 -4.765625 C 9.507812 -4.234375 10.140625 -3.96875 10.890625 -3.96875 C 11.648438 -3.96875 12.359375 -4.097656 13.015625 -4.359375 C 13.671875 -4.628906 14.234375 -4.984375 14.703125 -5.421875 C 15.179688 -5.859375 15.550781 -6.382812 15.8125 -7 C 16.082031 -7.613281 16.21875 -8.265625 16.21875 -8.953125 Z M 16.21875 -15.9375 L 16.21875 -17.921875 C 16.21875 -19.742188 15.894531 -21.070312 15.25 -21.90625 C 14.601562 -22.738281 13.609375 -23.15625 12.265625 -23.15625 C 11.347656 -23.15625 10.65625 -22.910156 10.1875 -22.421875 C 9.71875 -21.929688 9.273438 -21.125 8.859375 -20 C 8.578125 -19.207031 8.175781 -18.59375 7.65625 -18.15625 C 7.144531 -17.71875 6.429688 -17.5 5.515625 -17.5 C 4.640625 -17.5 3.960938 -17.765625 3.484375 -18.296875 C 3.015625 -18.828125 2.78125 -19.582031 2.78125 -20.5625 C 2.78125 -22.070312 3.601562 -23.265625 5.25 -24.140625 C 6.90625 -25.023438 9.398438 -25.46875 12.734375 -25.46875 C 16.253906 -25.46875 18.769531 -24.828125 20.28125 -23.546875 C 21.789062 -22.273438 22.546875 -20.148438 22.546875 -17.171875 L 22.546875 -6.84375 C 22.546875 -4.164062 23.078125 -2.828125 24.140625 -2.828125 C 24.742188 -2.828125 25.296875 -3.03125 25.796875 -3.4375 L 26.5 -2.078125 C 26.0625 -1.285156 25.378906 -0.660156 24.453125 -0.203125 C 23.523438 0.242188 22.476562 0.46875 21.3125 0.46875 C 19.863281 0.46875 18.757812 0.03125 18 -0.84375 C 17.25 -1.726562 16.875 -2.972656 16.875 -4.578125 L 16.640625 -4.578125 C 15.734375 -2.941406 14.554688 -1.695312 13.109375 -0.84375 C 11.660156 0 10.007812 0.421875 8.15625 0.421875 C 6.175781 0.421875 4.585938 -0.132812 3.390625 -1.25 C 2.203125 -2.363281 1.609375 -3.816406 1.609375 -5.609375 C 1.609375 -6.992188 2.21875 -8.289062 3.4375 -9.5 C 4.664062 -10.707031 6.710938 -11.894531 9.578125 -13.0625 Z M 16.21875 -15.9375 "/></g></g><g style="fill:#000000;fill-opacity:1;"><g transform="translate(194.458592, 58.359608)"><path style="stroke:none" d="M 10.28125 -21.921875 L 10.46875 -21.921875 C 12.539062 -24.285156 15.242188 -25.46875 18.578125 -25.46875 C 20.398438 -25.46875 22.070312 -25.144531 23.59375 -24.5 C 25.125 -23.851562 26.445312 -22.957031 27.5625 -21.8125 C 28.675781 -20.664062 29.539062 -19.296875 30.15625 -17.703125 C 30.769531 -16.117188 31.078125 -14.382812 31.078125 -12.5 C 31.078125 -10.613281 30.769531 -8.882812 30.15625 -7.3125 C 29.539062 -5.738281 28.679688 -4.367188 27.578125 -3.203125 C 26.484375 -2.046875 25.171875 -1.144531 23.640625 -0.5 C 22.117188 0.144531 20.460938 0.46875 18.671875 0.46875 C 15.617188 0.46875 13.289062 -0.566406 11.6875 -2.640625 L 11.5 -2.640625 L 11.5 3.90625 C 11.5 5.164062 11.5625 6.171875 11.6875 6.921875 C 11.820312 7.679688 12.09375 8.265625 12.5 8.671875 C 12.90625 9.085938 13.476562 9.375 14.21875 9.53125 C 14.957031 9.6875 15.941406 9.78125 17.171875 9.8125 L 17.171875 11.796875 L 0.890625 11.796875 L 0.890625 9.8125 C 1.742188 9.78125 2.4375 9.6875 2.96875 9.53125 C 3.5 9.375 3.914062 9.085938 4.21875 8.671875 C 4.519531 8.265625 4.722656 7.707031 4.828125 7 C 4.941406 6.289062 5 5.375 5 4.25 L 5 -13.296875 C 5 -14.742188 4.96875 -16.117188 4.90625 -17.421875 C 4.84375 -18.722656 4.765625 -19.644531 4.671875 -20.1875 C 4.515625 -20.90625 4.160156 -21.40625 3.609375 -21.6875 C 3.054688 -21.96875 2.117188 -22.109375 0.796875 -22.109375 L 0.796875 -23.953125 L 10.28125 -25.28125 Z M 18.296875 -22.78125 C 17.285156 -22.78125 16.320312 -22.554688 15.40625 -22.109375 C 14.5 -21.671875 13.78125 -21.09375 13.25 -20.375 C 12.71875 -19.644531 12.304688 -18.738281 12.015625 -17.65625 C 11.734375 -16.570312 11.59375 -15.398438 11.59375 -14.140625 L 11.59375 -10.9375 C 11.59375 -8.707031 12.144531 -6.804688 13.25 -5.234375 C 14.445312 -3.503906 16.128906 -2.640625 18.296875 -2.640625 C 20.210938 -2.640625 21.632812 -3.429688 22.5625 -5.015625 C 23.488281 -6.609375 23.953125 -9.070312 23.953125 -12.40625 C 23.953125 -19.320312 22.066406 -22.78125 18.296875 -22.78125 Z M 18.296875 -22.78125 "/></g></g><g style="fill:#000000;fill-opacity:1;"><g transform="translate(227.32731, 58.359608)"><path style="stroke:none" d="M 12.125 -7.734375 C 12.125 -6.472656 12.171875 -5.460938 12.265625 -4.703125 C 12.359375 -3.953125 12.546875 -3.375 12.828125 -2.96875 C 13.109375 -2.5625 13.515625 -2.285156 14.046875 -2.140625 C 14.585938 -2.003906 15.3125 -1.921875 16.21875 -1.890625 L 16.21875 0 L 1.375 0 L 1.375 -1.890625 C 2.25 -1.921875 2.960938 -2.019531 3.515625 -2.1875 C 4.066406 -2.363281 4.488281 -2.644531 4.78125 -3.03125 C 5.082031 -3.425781 5.285156 -3.976562 5.390625 -4.6875 C 5.503906 -5.394531 5.5625 -6.300781 5.5625 -7.40625 L 5.5625 -13.203125 C 5.5625 -15.023438 5.53125 -16.523438 5.46875 -17.703125 C 5.40625 -18.878906 5.328125 -19.691406 5.234375 -20.140625 C 5.078125 -20.921875 4.722656 -21.4375 4.171875 -21.6875 C 3.617188 -21.9375 2.617188 -22.0625 1.171875 -22.0625 L 1.171875 -23.671875 L 12.125 -25.46875 Z M 5.1875 -35.46875 C 5.1875 -36.5 5.539062 -37.367188 6.25 -38.078125 C 6.957031 -38.785156 7.8125 -39.140625 8.8125 -39.140625 C 9.851562 -39.140625 10.726562 -38.785156 11.4375 -38.078125 C 12.144531 -37.367188 12.5 -36.5 12.5 -35.46875 C 12.5 -34.457031 12.144531 -33.597656 11.4375 -32.890625 C 10.726562 -32.179688 9.851562 -31.828125 8.8125 -31.828125 C 7.8125 -31.828125 6.957031 -32.179688 6.25 -32.890625 C 5.539062 -33.597656 5.1875 -34.457031 5.1875 -35.46875 Z M 5.1875 -35.46875 "/></g></g><g style="fill:#000000;fill-opacity:1;"><g transform="translate(244.351133, 58.359608)"><path style="stroke:none" d="M 1.171875 -22.40625 L 1.171875 -24.515625 C 3.066406 -25.054688 4.648438 -25.867188 5.921875 -26.953125 C 7.191406 -28.035156 8.140625 -29.285156 8.765625 -30.703125 L 11.171875 -30.703125 L 11.171875 -25 L 16.59375 -25 L 16.59375 -22.40625 L 11.171875 -22.40625 L 11.171875 -7.921875 C 11.171875 -5.972656 11.382812 -4.585938 11.8125 -3.765625 C 12.238281 -2.953125 12.953125 -2.546875 13.953125 -2.546875 C 15.179688 -2.546875 16.109375 -3.113281 16.734375 -4.25 L 17.734375 -2.875 C 16.847656 -0.644531 14.769531 0.46875 11.5 0.46875 C 9.332031 0.46875 7.644531 -0.03125 6.4375 -1.03125 C 5.226562 -2.039062 4.625 -3.457031 4.625 -5.28125 L 4.625 -22.40625 Z M 1.171875 -22.40625 "/></g></g><g style="fill:#000000;fill-opacity:1;"><g transform="translate(262.36526, 58.359608)"><path style="stroke:none" d="M 13.53125 7.40625 C 13.1875 8.09375 12.753906 8.734375 12.234375 9.328125 C 11.710938 9.929688 11.128906 10.441406 10.484375 10.859375 C 9.847656 11.285156 9.179688 11.625 8.484375 11.875 C 7.796875 12.132812 7.101562 12.265625 6.40625 12.265625 C 5.375 12.265625 4.539062 12.007812 3.90625 11.5 C 3.28125 11 2.96875 10.328125 2.96875 9.484375 C 2.96875 8.691406 3.242188 8.078125 3.796875 7.640625 C 4.347656 7.203125 5.234375 6.9375 6.453125 6.84375 C 9.253906 6.613281 11.066406 5.734375 11.890625 4.203125 L 13.15625 1.75 L 4.8125 -18.90625 C 4.4375 -19.820312 4.113281 -20.546875 3.84375 -21.078125 C 3.570312 -21.609375 3.28125 -22.023438 2.96875 -22.328125 C 2.65625 -22.628906 2.289062 -22.828125 1.875 -22.921875 C 1.46875 -23.015625 0.96875 -23.078125 0.375 -23.109375 L 0.375 -25 L 14.671875 -25 L 14.671875 -23.109375 C 13.441406 -23.109375 12.582031 -22.988281 12.09375 -22.75 C 11.601562 -22.519531 11.359375 -22.085938 11.359375 -21.453125 C 11.359375 -21.203125 11.394531 -20.910156 11.46875 -20.578125 C 11.550781 -20.253906 11.660156 -19.914062 11.796875 -19.5625 L 16.59375 -5.796875 L 16.78125 -5.796875 L 20.84375 -15 C 21.25 -15.96875 21.59375 -16.773438 21.875 -17.421875 C 22.164062 -18.066406 22.378906 -18.617188 22.515625 -19.078125 C 22.660156 -19.535156 22.765625 -19.90625 22.828125 -20.1875 C 22.890625 -20.46875 22.921875 -20.75 22.921875 -21.03125 C 22.921875 -21.84375 22.691406 -22.390625 22.234375 -22.671875 C 21.773438 -22.960938 20.851562 -23.109375 19.46875 -23.109375 L 19.46875 -25 L 30.84375 -25 L 30.84375 -23.109375 C 30.207031 -23.109375 29.671875 -23.019531 29.234375 -22.84375 C 28.796875 -22.675781 28.347656 -22.320312 27.890625 -21.78125 C 27.429688 -21.25 26.925781 -20.457031 26.375 -19.40625 C 25.832031 -18.351562 25.148438 -16.960938 24.328125 -15.234375 Z M 13.53125 7.40625 "/></g></g><g clip-rule="nonzero" clip-path="url(#a80aed44bf)"><g clip-rule="nonzero" clip-path="url(#d50713634a)"><path style=" stroke:none;fill-rule:nonzero;fill:#2563eb;fill-opacity:1;" d="M 289.089844 61.425781 L 298.742188 61.425781 L 298.742188 70.445312 L 289.089844 70.445312 Z M 289.089844 61.425781 "/></g></g><g clip-rule="nonzero" clip-path="url(#aae7552cf0)"><g clip-rule="nonzero" clip-path="url(#552547ffc4)"><g clip-rule="nonzero" clip-path="url(#aa95ddd275)"><path style=" stroke:none;fill-rule:nonzero;fill:#ffffff;fill-opacity:1;" d="M 54.625 21.988281 L 49.523438 24.96875 L 42.039062 12.152344 L 47.140625 9.171875 Z M 54.625 21.988281 "/></g></g></g><g clip-rule="nonzero" clip-path="url(#a88693bbe8)"><g clip-rule="nonzero" clip-path="url(#f6a0cf01c4)"><g clip-rule="nonzero" clip-path="url(#3534379342)"><path style=" stroke:none;fill-rule:nonzero;fill:#ffffff;fill-opacity:1;" d="M 50.382812 30.898438 L 45.28125 33.878906 L 32.097656 11.300781 L 37.199219 8.320312 Z M 50.382812 30.898438 "/></g></g></g><g clip-rule="nonzero" clip-path="url(#33f4b5f6f0)"><g clip-rule="nonzero" clip-path="url(#9e83a75e32)"><g clip-rule="nonzero" clip-path="url(#838b4c93ae)"><path style=" stroke:none;fill-rule:nonzero;fill:#ffffff;fill-opacity:1;" d="M 62.851562 69.351562 L 57.75 72.332031 L 24.652344 15.65625 L 29.753906 12.675781 Z M 62.851562 69.351562 "/></g></g></g><g clip-rule="nonzero" clip-path="url(#5fdb2cbbac)"><g clip-rule="nonzero" clip-path="url(#9fd2189295)"><g clip-rule="nonzero" clip-path="url(#47f52c0d04)"><path style=" stroke:none;fill-rule:nonzero;fill:#ffffff;fill-opacity:1;" d="M 32.921875 62.875 L 38.023438 59.894531 L 45.519531 72.726562 L 40.417969 75.707031 Z M 32.921875 62.875 "/></g></g></g><g clip-rule="nonzero" clip-path="url(#a98036435c)"><g clip-rule="nonzero" clip-path="url(#e0e8be9cae)"><g clip-rule="nonzero" clip-path="url(#ae8ee0504d)"><path style=" stroke:none;fill-rule:nonzero;fill:#ffffff;fill-opacity:1;" d="M 37.171875 53.976562 L 42.273438 51 L 55.460938 73.578125 L 50.359375 76.554688 Z M 37.171875 53.976562 "/></g></g></g></g></svg>